<!-- Generator: Adobe Illustrator 18.0.0, SVG Export Plug-In  -->
<svg version="1.1"
	 xmlns="http://www.w3.org/2000/svg" xmlns:xlink="http://www.w3.org/1999/xlink" xmlns:a="http://ns.adobe.com/AdobeSVGViewerExtensions/3.0/"
	 x="0px" y="0px" width="21.3px" height="18.8px" viewBox="0 0 21.3 18.8" enable-background="new 0 0 21.3 18.8"
	 xml:space="preserve">
<defs>
</defs>
<path fill-rule="evenodd" clip-rule="evenodd" fill="#231F20" d="M16,18.8c-2.3,0-7.5,0-7.5,0s-5.3,0-7.5,0c-0.7,0-1-0.4-1-1.1
	c0.2-1.1,0.8-2.8,3-3.5c2.4-0.9,2.5-1,2.5-1s0.5-0.9,0.8-1c0.3-0.1,0-0.4,0-0.5c0-0.1-0.4,0-0.4-1.3C6,10,6,9.9,5.8,9.9
	c-0.2,0-0.7-0.3-0.7-1.3c0-1.1,0-1.1,0.2-1.1c0-0.4-0.2-1.1-0.2-2.5c0-1.5,1.2-2.8,3.4-2.8c0.7,0,1.2-0.3,1.8-0.4
	c0.1,0.2,0.2,0.5,0.3,0.6c0.5,0.3,1.1,1.1,1.3,2.6c0,1.5-0.2,2.1-0.2,2.5c0.2,0,0.2,0.1,0.2,1.1c0,1-0.5,1.3-0.7,1.3
	c-0.2,0-0.2,0-0.2,0.5c0,1.3-0.3,1.2-0.4,1.3c0,0.1-0.3,0.5,0,0.5c0.2,0.1,0.8,1,0.8,1s0.2,0.1,2.5,1c2.2,0.7,2.8,2.4,3,3.6
	C17,18.5,16.8,18.8,16,18.8L16,18.8z"/>
<path fill-rule="evenodd" clip-rule="evenodd" d="M21.3,2.4C21.3,1.1,20,0,17.6,0c-2.5,0-3.7,1.1-3.7,2.4c0,1.2,0.7,2.1,2.7,2.4
	c-0.2,0.4-1.5,2.4-2,2.7c0.8,0,2.7-2.1,3.3-2.6C20.2,4.8,21.3,3.7,21.3,2.4z"/>
</svg>
