<!-- Generator: Adobe Illustrator 18.0.0, SVG Export Plug-In  -->
<svg version="1.1"
	 xmlns="http://www.w3.org/2000/svg" xmlns:xlink="http://www.w3.org/1999/xlink" xmlns:a="http://ns.adobe.com/AdobeSVGViewerExtensions/3.0/"
	 x="0px" y="0px" width="17.2px" height="17.2px" viewBox="0 0 17.2 17.2" enable-background="new 0 0 17.2 17.2"
	 xml:space="preserve">
<defs>
</defs>
<g>
	<path fill="#231F20" d="M9.2,14.9H3.4c-0.6,0-1.1-0.5-1.1-1.2V1.2C2.3,0.5,2.8,0,3.4,0h5.7c0.6,0,1.1,0.5,1.1,1.2v12.6
		C10.3,14.4,9.8,14.9,9.2,14.9L9.2,14.9z M9.2,1.2H3.4v12.6h5.7V1.2L9.2,1.2z M16.1,14.9h-5.7c-0.6,0-1.1-0.5-1.1-1.2V1.2
		C9.2,0.5,9.7,0,10.3,0h5.7c0.6,0,1.1,0.5,1.1,1.2v12.6C17.2,14.4,16.7,14.9,16.1,14.9L16.1,14.9z M16.1,1.2h-5.7v12.6h5.7V1.2
		L16.1,1.2z M4.6,4.6V3.4H8v1.1H4.6L4.6,4.6z M4.6,6.9V5.7H8v1.1H4.6L4.6,6.9z M4.6,9.2V8H8v1.1H4.6L4.6,9.2z M4.6,11.5v-1.1H8v1.1
		H4.6L4.6,11.5z M11.5,4.6V3.4h3.4v1.1H11.5L11.5,4.6z M11.5,6.9V5.7h3.4v1.1H11.5L11.5,6.9z M11.5,9.2V8h3.4v1.1H11.5L11.5,9.2z
		 M11.5,11.5v-1.1h3.4v1.1H11.5L11.5,11.5z M13.8,17.2H1.1c-0.6,0-1.1-0.5-1.1-1.1V3.4c0-0.6,0.5-1.1,1.1-1.1h1.2v1.1H1.1v12.6h12.6
		v-1.1h1.1v1.1C14.9,16.7,14.4,17.2,13.8,17.2L13.8,17.2z"/>
</g>
</svg>
