<!-- Generator: Adobe Illustrator 18.0.0, SVG Export Plug-In  -->
<svg version="1.1"
	 xmlns="http://www.w3.org/2000/svg" xmlns:xlink="http://www.w3.org/1999/xlink" xmlns:a="http://ns.adobe.com/AdobeSVGViewerExtensions/3.0/"
	 x="0px" y="0px" width="16.6px" height="16.6px" viewBox="0 0 16.6 16.6" enable-background="new 0 0 16.6 16.6"
	 xml:space="preserve">
<defs>
</defs>
<path fill-rule="evenodd" clip-rule="evenodd" fill="#231F20" d="M1.2,2.4V1.2h14.2v1.2H1.2L1.2,2.4z M1.2,15.4V3.6h14.2v11.9H1.2
	L1.2,15.4z M0,1.2v1.2v1.2v11.9l1.2,1.2h14.2l1.2-1.2V3.6V2.4V1.2L15.4,0H1.2L0,1.2L0,1.2z M8.3,10.7h2.4l1.2-3.6h1.2v5.9H8.3V10.7
	L8.3,10.7z M3.6,5.9h5.9v3.6H3.6V5.9L3.6,5.9z M2.4,4.7v1.2v3.6v1.2h1.2h3.6v2.4v1.2h5.9h1.2v-1.2V7.1V5.9h-1.2h-2.4V4.7H3.6H2.4
	L2.4,4.7z"/>
</svg>
