<!-- Generator: Adobe Illustrator 18.0.0, SVG Export Plug-In  -->
<svg version="1.1"
	 xmlns="http://www.w3.org/2000/svg" xmlns:xlink="http://www.w3.org/1999/xlink" xmlns:a="http://ns.adobe.com/AdobeSVGViewerExtensions/3.0/"
	 x="0px" y="0px" width="25.3px" height="17.1px" viewBox="0 0 25.3 17.1" enable-background="new 0 0 25.3 17.1"
	 xml:space="preserve">
<defs>
</defs>
<path fill-rule="evenodd" clip-rule="evenodd" fill="#231F20" d="M19.1,17.1c-2.3,0-7.5,0-7.5,0s-5.3,0-7.5,0c-0.7,0-1-0.4-1-1.1
	c0.2-1.1,0.8-2.8,3-3.5c2.4-0.9,2.5-1,2.5-1s0.5-0.9,0.8-1c0.3-0.1,0-0.4,0-0.5c0-0.1-0.4,0-0.4-1.3c0-0.4,0.1-0.5-0.2-0.5
	c-0.2,0-0.7-0.3-0.7-1.3c0-1.1,0-1.1,0.2-1.1c0-0.4-0.2-1.1-0.2-2.5c0-1.5,1.2-2.8,3.4-2.8c0.7,0,1.2-0.3,1.8-0.4
	c0.1,0.2,0.2,0.5,0.3,0.6c0.5,0.3,1.1,1.1,1.3,2.6c0,1.5-0.2,2.1-0.2,2.5c0.2,0,0.2,0.1,0.2,1.1c0,1-0.5,1.3-0.7,1.3
	c-0.2,0-0.2,0-0.2,0.5c0,1.3-0.3,1.2-0.4,1.3c0,0.1-0.3,0.5,0,0.5c0.2,0.1,0.8,1,0.8,1s0.2,0.1,2.5,1c2.2,0.7,2.8,2.4,3,3.6
	C20.2,16.7,20,17.1,19.1,17.1L19.1,17.1z"/>
<path fill-rule="evenodd" clip-rule="evenodd" fill="#231F20" d="M24.7,17.1c-1.4,0-4.5,0-4.5,0s-3.2,0-4.6,0
	c-0.4,0-0.6-0.2-0.6-0.7c0.1-0.7,0.5-1.7,1.8-2.1c1.4-0.6,1.5-0.6,1.5-0.6s0.3-0.6,0.5-0.6c0.2,0,0-0.3,0-0.3c0-0.1-0.2,0-0.2-0.8
	c0-0.3,0-0.3-0.1-0.3c-0.1,0-0.4-0.2-0.4-0.8c0-0.6,0-0.7,0.1-0.7c0-0.2-0.1-0.6-0.1-1.5c0-0.9,0.7-1.7,2.1-1.7
	c0.4,0,0.7-0.2,1.1-0.2c0,0.1,0.1,0.3,0.2,0.4c0.3,0.2,0.7,0.7,0.8,1.6c0,0.9-0.1,1.3-0.1,1.5c0.1,0,0.1,0,0.1,0.7
	c0,0.6-0.3,0.8-0.4,0.8c-0.1,0-0.1,0-0.1,0.3c0,0.8-0.2,0.7-0.2,0.8c0,0.1-0.2,0.3,0,0.3c0.2,0,0.5,0.6,0.5,0.6s0.1,0.1,1.5,0.6
	c1.4,0.4,1.7,1.5,1.8,2.2C25.3,16.9,25.2,17.1,24.7,17.1L24.7,17.1z"/>
<path fill-rule="evenodd" clip-rule="evenodd" fill="#231F20" d="M5.4,9.5c-0.8,0-2.5,0-2.5,0s-1.8,0-2.5,0C0.1,9.5,0,9.4,0,9.1
	c0.1-0.4,0.3-1,1-1.2c0.8-0.3,0.9-0.3,0.9-0.3s0.2-0.3,0.3-0.3c0.1,0,0-0.1,0-0.2c0,0-0.1,0-0.1-0.4C2,6.5,2,6.5,2,6.5
	C1.9,6.5,1.7,6.4,1.7,6c0-0.4,0-0.4,0.1-0.4c0-0.1-0.1-0.4-0.1-0.9c0-0.5,0.4-1,1.2-1c0.2,0,0.4-0.1,0.6-0.1c0,0.1,0.1,0.2,0.1,0.2
	C3.8,4,4,4.3,4,4.8C4,5.3,4,5.5,4,5.6C4,5.7,4,5.7,4,6c0,0.4-0.2,0.5-0.2,0.5c-0.1,0-0.1,0-0.1,0.2c0,0.4-0.1,0.4-0.1,0.4
	c0,0-0.1,0.2,0,0.2c0.1,0,0.3,0.3,0.3,0.3s0.1,0,0.9,0.3c0.8,0.2,1,0.8,1,1.2C5.8,9.4,5.7,9.5,5.4,9.5L5.4,9.5z"/>
</svg>
