<?xml version="1.0" encoding="utf-8"?>
<!-- Generator: Adobe Illustrator 16.0.0, SVG Export Plug-In . SVG Version: 6.00 Build 0)  -->
<!DOCTYPE svg PUBLIC "-//W3C//DTD SVG 1.1//EN" "http://www.w3.org/Graphics/SVG/1.1/DTD/svg11.dtd">
<svg version="1.1" id="Layer_1" xmlns="http://www.w3.org/2000/svg" xmlns:xlink="http://www.w3.org/1999/xlink" x="0px" y="0px"
	 width="58px" height="52px" viewBox="0 0 58 52" enable-background="new 0 0 58 52" xml:space="preserve">
<g>
	<g>
		<path fill-rule="evenodd" clip-rule="evenodd" d="M6,12h46c3.313,0,6-2.686,6-6c0-3.313-2.687-6-6-6H6C2.687,0,0,2.687,0,6
			C0,9.314,2.687,12,6,12z M52,20H6c-3.313,0-6,2.687-6,6c0,3.314,2.687,6,6,6h46c3.313,0,6-2.686,6-6C58,22.687,55.313,20,52,20z
			 M52,40H6c-3.313,0-6,2.686-6,6s2.687,6,6,6h46c3.313,0,6-2.686,6-6S55.313,40,52,40z"/>
	</g>
</g>
</svg>
