<?xml version="1.0" encoding="utf-8"?>
<!-- Generator: Adobe Illustrator 16.0.0, SVG Export Plug-In . SVG Version: 6.00 Build 0)  -->
<!DOCTYPE svg PUBLIC "-//W3C//DTD SVG 1.1//EN" "http://www.w3.org/Graphics/SVG/1.1/DTD/svg11.dtd">
<svg version="1.1" id="Layer_1" xmlns="http://www.w3.org/2000/svg" xmlns:xlink="http://www.w3.org/1999/xlink" x="0px" y="0px"
	 width="23px" height="21px" viewBox="0 0 23 21" enable-background="new 0 0 23 21" xml:space="preserve">
<path fill-rule="evenodd" clip-rule="evenodd" d="M22.589,20.236c-0.676,0.849-1.892,0.977-2.713,0.283l-7.442-6.262
	c-0.528-0.44-0.765-1.111-0.691-1.759c-1.107,1.04-2.503,1.683-4.023,1.842c-1.865,0.195-3.688-0.366-5.132-1.581
	c-1.446-1.217-2.342-2.939-2.525-4.856s0.37-3.795,1.559-5.287c2.455-3.079,6.88-3.543,9.867-1.032
	c2.71,2.282,3.316,6.242,1.57,9.257c0.604-0.205,1.293-0.1,1.821,0.346l7.447,6.26C23.147,18.14,23.265,19.389,22.589,20.236z
	 M11.533,6.556c-0.122-1.281-0.723-2.433-1.693-3.245C7.838,1.632,4.866,1.94,3.219,3.998C1.572,6.059,1.862,9.1,3.866,10.776
	c2.003,1.68,4.974,1.371,6.621-0.687C11.284,9.093,11.656,7.838,11.533,6.556z"/>
</svg>
