<!-- Generator: Adobe Illustrator 18.0.0, SVG Export Plug-In  -->
<svg version="1.1"
	 xmlns="http://www.w3.org/2000/svg" xmlns:xlink="http://www.w3.org/1999/xlink" xmlns:a="http://ns.adobe.com/AdobeSVGViewerExtensions/3.0/"
	 x="0px" y="0px" width="109.7px" height="97.1px" viewBox="0 0 109.7 97.1" enable-background="new 0 0 109.7 97.1"
	 xml:space="preserve">
<defs>
</defs>
<g>
	<g>
		<polyline points="7.5,30 54.8,65.3 54.8,65.3 		"/>
		<path d="M54.8,72.3c-1.5,0-2.9-0.5-4.2-1.4L3.3,35.7c-3.1-2.3-3.7-6.7-1.4-9.8s6.7-3.7,9.8-1.4L59,59.7c3.1,2.3,3.7,6.7,1.4,9.8
			C59.1,71.4,57,72.3,54.8,72.3z"/>
	</g>
	<g>
		<polyline points="102.2,30 54.8,65.3 54.8,65.3 		"/>
		<path d="M54.8,72.3c-2.1,0-4.2-1-5.6-2.8c-2.3-3.1-1.7-7.5,1.4-9.8L98,24.4c3.1-2.3,7.5-1.7,9.8,1.4c2.3,3.1,1.7,7.5-1.4,9.8
			L59,70.9C57.8,71.9,56.3,72.3,54.8,72.3z"/>
	</g>
</g>
<path d="M88.2,97.1H21.5c-8.3,0-13.2-3.4-15.9-6.3C-0.1,84.6-0.1,76.4,0,74.4V44c0-3.9,3.1-7,7-7s7,3.1,7,7l0,31.1
	c-0.1,1,0.2,4.3,1.9,6.2c0.4,0.4,1.7,1.8,5.6,1.8h66.6c3.9,0,5.2-1.3,5.6-1.8c1.8-1.8,2-5.2,1.9-6.3l0-0.3l0-0.2V44c0-3.9,3.1-7,7-7
	s7,3.1,7,7v30.4c0.1,1.9,0.1,10.2-5.6,16.4C101.4,93.7,96.5,97.1,88.2,97.1z"/>
<path d="M102.7,60.1c-3.9,0-7-3.1-7-7l0-31.1c0.1-1-0.2-4.4-1.9-6.2c-0.4-0.4-1.7-1.8-5.6-1.8H21.5c-3.9,0-5.2,1.3-5.6,1.8
	c-1.8,1.8-2,5.2-1.9,6.3l0,0.3l0,0.2v30.6c0,3.9-3.1,7-7,7s-7-3.1-7-7V22.7c-0.1-1.9-0.1-10.2,5.6-16.4C8.3,3.4,13.2,0,21.5,0h66.6
	c8.3,0,13.2,3.4,15.9,6.3c5.7,6.2,5.7,14.5,5.6,16.4v30.4C109.7,57,106.5,60.1,102.7,60.1z"/>
</svg>
