<?xml version="1.0" encoding="utf-8"?>
<!-- Generator: Adobe Illustrator 16.0.0, SVG Export Plug-In . SVG Version: 6.00 Build 0)  -->
<!DOCTYPE svg PUBLIC "-//W3C//DTD SVG 1.1//EN" "http://www.w3.org/Graphics/SVG/1.1/DTD/svg11.dtd">
<svg version="1.1" id="Layer_1" xmlns="http://www.w3.org/2000/svg" xmlns:xlink="http://www.w3.org/1999/xlink" x="0px" y="0px"
	 width="23px" height="18px" viewBox="0 0 23 18" enable-background="new 0 0 23 18" xml:space="preserve">
<g>
	<g>
		<path fill-rule="evenodd" clip-rule="evenodd" d="M20.5,0C19.119,0,18,1.119,18,2.5c0,0.615,0.23,1.172,0.6,1.607l-3.887,6.969
			C13.999,10.414,13.051,10,12,10c-0.957,0-1.823,0.35-2.512,0.91L5.156,6.08C5.676,5.54,6,4.809,6,4c0-1.657-1.343-3-3-3
			S0,2.343,0,4c0,1.657,1.343,3,3,3c0.485,0,0.937-0.126,1.342-0.33l4.45,4.962C8.3,12.297,8,13.11,8,14c0,2.209,1.791,4,4,4
			s4-1.791,4-4c0-0.77-0.228-1.482-0.604-2.092l4.001-7.175C19.73,4.898,20.102,5,20.5,5C21.881,5,23,3.881,23,2.5S21.881,0,20.5,0z
			"/>
	</g>
</g>
</svg>
