<!-- Generator: Adobe Illustrator 18.0.0, SVG Export Plug-In  -->
<svg version="1.1"
	 xmlns="http://www.w3.org/2000/svg" xmlns:xlink="http://www.w3.org/1999/xlink" xmlns:a="http://ns.adobe.com/AdobeSVGViewerExtensions/3.0/"
	 x="0px" y="0px" width="8.9px" height="14.7px" viewBox="0 0 8.9 14.7" enable-background="new 0 0 8.9 14.7" xml:space="preserve"
	>
<defs>
</defs>
<g>
	<path fill-rule="evenodd" clip-rule="evenodd" fill="#231F20" d="M6.7,14.7H2.2c-1.2,0-2.2-1-2.2-2.2V2.2C0,1,1,0,2.2,0h4.6
		c1.2,0,2.1,1,2.1,2.2v10.3C8.9,13.7,7.9,14.7,6.7,14.7L6.7,14.7z M4.4,13.6c0.4,0,0.7-0.3,0.7-0.7c0-0.4-0.3-0.7-0.7-0.7
		c-0.4,0-0.7,0.3-0.7,0.7C3.8,13.3,4.1,13.6,4.4,13.6L4.4,13.6z M7.8,2.2H1.1v9h6.7V2.2L7.8,2.2z"/>
</g>
</svg>
