<?xml version="1.0" encoding="utf-8"?>
<!-- Generator: Adobe Illustrator 16.0.0, SVG Export Plug-In . SVG Version: 6.00 Build 0)  -->
<!DOCTYPE svg PUBLIC "-//W3C//DTD SVG 1.1//EN" "http://www.w3.org/Graphics/SVG/1.1/DTD/svg11.dtd">
<svg version="1.1" id="Layer_1" xmlns="http://www.w3.org/2000/svg" xmlns:xlink="http://www.w3.org/1999/xlink" x="0px" y="0px"
	 width="17px" height="17px" viewBox="0 0 17 17" enable-background="new 0 0 17 17" xml:space="preserve">
<g>
	<g>
		<path fill-rule="evenodd" clip-rule="evenodd" d="M5,0H2C0.896,0,0,0.896,0,2v3c0,1.104,0.896,2,2,2h3c1.104,0,2-0.896,2-2V2
			C7,0.896,6.104,0,5,0z M15,0h-3c-1.104,0-2,0.896-2,2v3c0,1.104,0.896,2,2,2h3c1.104,0,2-0.896,2-2V2C17,0.896,16.104,0,15,0z
			 M15,10h-3c-1.104,0-2,0.896-2,2v3c0,1.104,0.896,2,2,2h3c1.104,0,2-0.896,2-2v-3C17,10.896,16.104,10,15,10z M5,10H2
			c-1.104,0-2,0.896-2,2v3c0,1.104,0.896,2,2,2h3c1.104,0,2-0.896,2-2v-3C7,10.896,6.104,10,5,10z"/>
	</g>
</g>
</svg>
