<!-- Generator: Adobe Illustrator 18.0.0, SVG Export Plug-In  -->
<svg version="1.1"
	 xmlns="http://www.w3.org/2000/svg" xmlns:xlink="http://www.w3.org/1999/xlink" xmlns:a="http://ns.adobe.com/AdobeSVGViewerExtensions/3.0/"
	 x="0px" y="0px" width="14.7px" height="17px" viewBox="0 0 14.7 17" enable-background="new 0 0 14.7 17" xml:space="preserve">
<defs>
</defs>
<g>
	<path fill-rule="evenodd" clip-rule="evenodd" fill="#231F20" d="M12.4,15.9h-0.8v-2H3v2H2.3c-1.2,0-2.3-1-2.3-2.3V8.9
		c0-1.2,1-2.3,2.3-2.3h0.8v1h8.6v-1h0.7c1.3,0,2.3,1,2.3,2.3v4.8C14.7,14.9,13.7,15.9,12.4,15.9L12.4,15.9z M12.3,9.1H9.1
		c-0.4,0-0.8,0.4-0.8,0.8c0,0.4,0.3,0.8,0.8,0.8h3.2c0.4,0,0.8-0.3,0.8-0.8C13.1,9.4,12.7,9.1,12.3,9.1L12.3,9.1z M3.7,0h7.5v5.7
		H3.7V0L3.7,0z M11,17H3.5v-2.5H11V17L11,17z"/>
</g>
</svg>
