<!-- Generator: Adobe Illustrator 18.0.0, SVG Export Plug-In  -->
<svg version="1.1"
	 xmlns="http://www.w3.org/2000/svg" xmlns:xlink="http://www.w3.org/1999/xlink" xmlns:a="http://ns.adobe.com/AdobeSVGViewerExtensions/3.0/"
	 x="0px" y="0px" width="300.5px" height="275px" viewBox="0 0 300.5 275" enable-background="new 0 0 300.5 275"
	 xml:space="preserve">
<defs>
</defs>
<path d="M273.7,42.5v22.4H26.8V42.5H0V275h300.5V42.5H273.7z M273.7,258.1H26.8V111.6h246.9V258.1z"/>
<rect x="37.5" y="21.2" width="225.6" height="37.3"/>
<rect x="227.9" y="0" width="25.2" height="29.7"/>
<rect x="47.5" y="0" width="25.2" height="29.7"/>
<g>
	<path d="M122.5,145.5c1.9-1.6,4-3.1,6.2-4.5c2.2-1.4,4.6-2.6,7.2-3.6c2.6-1,5.3-1.9,8.2-2.5c2.9-0.6,6.1-0.9,9.6-0.9
		c4.8,0,9.1,0.6,13,1.9c3.9,1.3,7.1,3.1,9.9,5.5c2.7,2.4,4.8,5.2,6.3,8.6c1.5,3.4,2.2,7.1,2.2,11.2c0,3.9-0.5,7.3-1.6,10.1
		c-1.1,2.8-2.4,5.3-4.1,7.4c-1.7,2.1-3.5,3.9-5.4,5.4c-2,1.5-3.8,2.9-5.6,4.3c-1.8,1.3-3.3,2.6-4.6,3.9c-1.3,1.3-2.1,2.7-2.4,4.3
		l-2.1,10.7h-16.3L141,195c-0.1-0.3-0.1-0.6-0.1-0.9c0-0.3,0-0.6,0-0.9c0-2.3,0.5-4.2,1.6-5.9c1.1-1.7,2.4-3.2,4.1-4.6
		c1.6-1.4,3.4-2.8,5.3-4.1c1.9-1.3,3.7-2.7,5.3-4.2c1.6-1.5,3-3.2,4.1-5.1c1.1-1.9,1.6-4.1,1.6-6.6c0-3.1-1-5.5-3-7.3
		c-2-1.8-4.8-2.7-8.3-2.7c-2.7,0-5,0.3-6.8,0.8c-1.8,0.6-3.4,1.2-4.7,1.9c-1.3,0.7-2.4,1.3-3.4,1.9c-1,0.6-1.9,0.8-2.9,0.8
		c-2.2,0-3.8-0.9-4.9-2.8L122.5,145.5z M136.6,235.1c0-1.8,0.3-3.6,1-5.1c0.7-1.6,1.6-3,2.8-4.1c1.2-1.2,2.6-2.1,4.3-2.8
		c1.6-0.7,3.4-1,5.4-1c1.9,0,3.7,0.3,5.3,1c1.6,0.7,3.1,1.6,4.3,2.8c1.2,1.2,2.2,2.6,2.9,4.1c0.7,1.6,1,3.3,1,5.1
		c0,1.8-0.3,3.6-1,5.2c-0.7,1.6-1.7,3-2.9,4.2c-1.2,1.2-2.7,2.1-4.3,2.8c-1.6,0.7-3.4,1-5.3,1c-1.9,0-3.7-0.3-5.4-1
		c-1.6-0.7-3.1-1.6-4.3-2.8c-1.2-1.2-2.1-2.6-2.8-4.2C136.9,238.6,136.6,236.9,136.6,235.1z"/>
</g>
</svg>
