<!-- Generator: Adobe Illustrator 18.0.0, SVG Export Plug-In  -->
<svg version="1.1"
	 xmlns="http://www.w3.org/2000/svg" xmlns:xlink="http://www.w3.org/1999/xlink" xmlns:a="http://ns.adobe.com/AdobeSVGViewerExtensions/3.0/"
	 x="0px" y="0px" width="14.2px" height="10.7px" viewBox="0 0 14.2 10.7" enable-background="new 0 0 14.2 10.7"
	 xml:space="preserve">
<defs>
</defs>
<path fill-rule="evenodd" clip-rule="evenodd" fill="#231F20" d="M0.2,5.1c-0.3,0.3-0.3,1,0,1.3l3.9,4c0.3,0.3,1,0.3,1.3,0l0.6-0.6
	c0.3-0.3,1-1,1.3-1.3L14,2.3c0.3-0.3,0.3-1,0-1.3l-0.8-0.8c-0.3-0.3-1-0.3-1.3,0L5.5,6.6c-0.3,0.3-1,0.3-1.3,0L2.1,4.5
	c-0.3-0.3-1-0.3-1.3,0L0.2,5.1L0.2,5.1z"/>
</svg>
