<!-- Generator: Adobe Illustrator 18.0.0, SVG Export Plug-In  -->
<svg version="1.1"
	 xmlns="http://www.w3.org/2000/svg" xmlns:xlink="http://www.w3.org/1999/xlink" xmlns:a="http://ns.adobe.com/AdobeSVGViewerExtensions/3.0/"
	 x="0px" y="0px" width="11.7px" height="10.7px" viewBox="0 0 11.7 10.7" enable-background="new 0 0 11.7 10.7"
	 xml:space="preserve">
<defs>
</defs>
<g>
	<path fill="#F1AF00" d="M11.7,1c0,0.6-0.3,1.1-0.8,1.7l-0.1,0.1L6.3,7.6c-1,1-1.8,1.8-2.5,2.3c-0.7,0.6-1.2,0.8-1.4,0.8
		c-0.3,0-0.7-0.1-1.1-0.4C0.9,10,0.6,9.8,0.4,9.5C0.3,9.2,0.2,8.7,0.1,7.9C0,7.1,0,6.3,0,5.3c0-0.5,0.2-1,0.6-1.4S1.5,3.3,2,3.3
		c0.5,0,0.8,0.4,0.9,1.3c0,0.1,0,0.2,0,0.2C3,5.5,3.1,6,3.2,6.3s0.2,0.4,0.4,0.4c0.1,0,0.2-0.1,0.4-0.2c0.2-0.2,0.4-0.4,0.7-0.6
		l4.7-4.6c0.4-0.4,0.7-0.7,1-0.9C10.7,0.1,11,0,11.2,0c0.2,0,0.3,0.1,0.3,0.2c0.1,0.1,0.1,0.3,0.1,0.6V1z"/>
</g>
</svg>
