<?xml version="1.0" standalone="no"?>
<!DOCTYPE svg PUBLIC "-//W3C//DTD SVG 1.1//EN" "http://www.w3.org/Graphics/SVG/1.1/DTD/svg11.dtd" >
<svg xmlns="http://www.w3.org/2000/svg">
<metadata>Generated by IcoMoon</metadata>
<defs>
<font id="icomoon" horiz-adv-x="1024">
<font-face units-per-em="1024" ascent="960" descent="-64" />
<missing-glyph horiz-adv-x="1024" />
<glyph unicode="&#x20;" horiz-adv-x="512" d="" />
<glyph unicode="&#xe600;" glyph-name="chevron-down" d="M961.714 489.143l-424-423.429q-10.857-10.857-25.714-10.857t-25.714 10.857l-424 423.429q-10.857 10.857-10.857 26t10.857 26l94.857 94.286q10.857 10.857 25.714 10.857t25.714-10.857l303.429-303.429 303.429 303.429q10.857 10.857 25.714 10.857t25.714-10.857l94.857-94.286q10.857-10.857 10.857-26t-10.857-26z" />
<glyph unicode="&#xe601;" glyph-name="chevron-left" horiz-adv-x="731" d="M669.143 778.857l-303.429-303.429 303.429-303.429q10.857-10.857 10.857-25.714t-10.857-25.714l-94.857-94.857q-10.857-10.857-25.714-10.857t-25.714 10.857l-424 424q-10.857 10.857-10.857 25.714t10.857 25.714l424 424q10.857 10.857 25.714 10.857t25.714-10.857l94.857-94.857q10.857-10.857 10.857-25.714t-10.857-25.714z" />
<glyph unicode="&#xe602;" glyph-name="chevron-right" horiz-adv-x="731" d="M632.571 449.714l-424-424q-10.857-10.857-25.714-10.857t-25.714 10.857l-94.857 94.857q-10.857 10.857-10.857 25.714t10.857 25.714l303.429 303.429-303.429 303.429q-10.857 10.857-10.857 25.714t10.857 25.714l94.857 94.857q10.857 10.857 25.714 10.857t25.714-10.857l424-424q10.857-10.857 10.857-25.714t-10.857-25.714z" />
<glyph unicode="&#xe603;" glyph-name="map-marker" horiz-adv-x="585" d="M438.857 585.143q0 60.571-42.857 103.429t-103.429 42.857-103.429-42.857-42.857-103.429 42.857-103.429 103.429-42.857 103.429 42.857 42.857 103.429zM585.143 585.143q0-62.286-18.857-102.286l-208-442.286q-9.143-18.857-27.143-29.714t-38.571-10.857-38.571 10.857-26.571 29.714l-208.571 442.286q-18.857 40-18.857 102.286 0 121.143 85.714 206.857t206.857 85.714 206.857-85.714 85.714-206.857z" />
<glyph unicode="&#xe604;" glyph-name="facebook-with-circle" d="M512 952.32c-271.462 0-491.52-220.058-491.52-491.52s220.058-491.52 491.52-491.52 491.52 220.058 491.52 491.52-220.058 491.52-491.52 491.52zM628.429 612.659h-73.882c-8.755 0-18.483-11.52-18.483-26.829v-53.35h92.416l-13.978-76.083h-78.438v-228.403h-87.194v228.403h-79.104v76.083h79.104v44.749c0 64.205 44.544 116.378 105.677 116.378h73.882v-80.947z" />
<glyph unicode="&#xe605;" glyph-name="youtube" d="M293.188 960l-69.188-137.234-69.188 137.234h-88.248l124.71-217.314 0.726 0.43v-167.116h64v167.116l0.726-0.43 124.71 217.314zM480 832c17.346 0 32-14.654 32-32v-128c0-17.346-14.654-32-32-32s-32 14.654-32 32v128c0 17.346 14.654 32 32 32zM480 896c-52.8 0-96-43.2-96-96v-128c0-52.8 43.2-96 96-96s96 43.2 96 96v128c0 52.8-43.2 96-96 96v0zM768 896v-251.968c-27.922-23.288-64-37.332-64 45.634v206.334h-64v-219.324h0.096c0.986-52.91 12.142-148.168 127.904-70.712v-29.964h64v320h-64zM864 256c-17.644 0-32-14.356-32-32v-32h64v32c0 17.644-14.356 32-32 32zM576 224v-168c21.666-21.666 64-24 64 8s0 118 0 150-32 42-64 10zM1018.766 378.46c-2.792 36.862-16.046 66.942-39.778 90.244-23.726 23.298-54.080 35.994-91.068 38.080-69.784 3.478-229.452 5.216-369.716 5.216-140.266 0-311.294-1.738-381.078-5.216-36.986-2.086-67.342-14.782-91.068-38.080-23.728-23.302-36.988-53.382-39.778-90.244-4.188-75.116-6.28-102.352-6.28-139.91 0-37.56 2.092-93.894 6.28-169.012 2.792-36.862 16.050-66.944 39.778-90.244 23.726-23.298 54.082-35.992 91.068-38.080 69.782-3.476 240.81-5.214 381.078-5.214 140.266 0 299.934 1.738 369.716 5.214 36.988 2.088 67.342 14.782 91.068 38.080 23.73 23.3 36.986 53.382 39.778 90.244 3.49 62.598 5.234 118.934 5.234 169.012 0 50.076-1.744 77.314-5.234 139.91zM192 0h-64v320h-64v64h192v-64h-64v-320zM448 0h-64v29.962c-121.666-68.294-126.918-2.198-127.904 50.712h-0.096v175.326h64v-176.334c0-38.666 36.078-34.924 64-11.634v187.968h64v-256zM704 64.914c0-66.892-68.504-86.402-128-34.39v-30.524h-64v384h64v-104c64 64 128 40 128-24s0-121.172 0-191.086zM960 192v-32h-128v-64c0-17.644 14.356-32 32-32s32 14.356 32 32v32h64v-32c0-52.934-43.066-96-96-96s-96 43.066-96 96v128c0 52.934 43.066 96 96 96s96-43.066 96-96v-32z" />
<glyph unicode="&#xe606;" glyph-name="pinterest" d="M512.006 959.998c-282.774 0-512.006-229.23-512.006-511.996 0-216.906 134.952-402.166 325.414-476.772-4.478 40.508-8.518 102.644 1.774 146.876 9.298 39.954 60.040 254.5 60.040 254.5s-15.32 30.664-15.32 76.008c0 71.19 41.268 124.336 92.644 124.336 43.68 0 64.784-32.794 64.784-72.12 0-43.928-27.964-109.604-42.404-170.464-12.060-50.972 25.556-92.536 75.814-92.536 91.008 0 160.958 95.96 160.958 234.466 0 122.584-88.088 208.298-213.868 208.298-145.678 0-231.186-109.274-231.186-222.19 0-44.008 16.95-91.196 38.102-116.844 4.182-5.070 4.792-9.516 3.548-14.68-3.884-16.18-12.522-50.96-14.216-58.076-2.234-9.368-7.422-11.356-17.124-6.842-63.95 29.77-103.926 123.264-103.926 198.348 0 161.51 117.348 309.834 338.294 309.834 177.61 0 315.634-126.56 315.634-295.704 0-176.458-111.256-318.466-265.676-318.466-51.886 0-100.652 26.958-117.35 58.796 0 0-25.672-97.766-31.894-121.71-11.564-44.468-42.768-100.218-63.642-134.226 47.91-14.832 98.818-22.832 151.604-22.832 282.768 0.002 511.996 229.23 511.996 512 0 282.766-229.228 511.996-511.994 511.996z" />
<glyph unicode="&#xe607;" glyph-name="google-plus" d="M437.006 141.838c0-75.068-46.39-134.392-177.758-139.176-76.984 43.786-141.49 106.952-186.908 182.866 23.69 58.496 97.692 103.046 182.316 102.114 24.022-0.252 46.41-4.114 66.744-10.7 55.908-38.866 101-63.152 112.324-107.448 2.114-8.964 3.282-18.206 3.282-27.656zM512 960c-147.94 0-281.196-62.77-374.666-163.098 36.934 20.452 80.538 32.638 126.902 32.638 67.068 0 256.438 0 256.438 0l-57.304-60.14h-67.31c47.496-27.212 72.752-83.248 72.752-145.012 0-56.692-31.416-102.38-75.78-137.058-43.28-33.802-51.492-47.966-51.492-76.734 0-24.542 51.722-61.098 75.5-78.936 82.818-62.112 99.578-101.184 99.578-178.87 0-78.726-68.936-157.104-185.866-183.742 56.348-21.338 117.426-33.048 181.248-33.048 282.77 0 512 229.23 512 512s-229.23 512-512 512zM768 576v-128h-64v128h-128v64h128v128h64v-128h128v-64h-128zM365.768 620.528c11.922-90.776-27.846-149.19-96.934-147.134-69.126 2.082-134.806 65.492-146.74 156.242-11.928 90.788 34.418 160.254 103.53 158.196 69.090-2.074 128.22-76.542 140.144-167.304zM220.886 317.932c-74.68 0-138.128-25.768-182.842-63.864-24.502 59.82-38.044 125.29-38.044 193.932 0 56.766 9.256 111.368 26.312 162.396 7.374-99.442 77.352-176.192 192.97-176.192 8.514 0 16.764 0.442 24.874 1.022-7.95-15.23-13.622-32.19-13.622-49.982 0-29.97 16.488-47.070 36.868-66.894-15.402 0-30.27-0.418-46.516-0.418z" />
<glyph unicode="&#xe608;" glyph-name="clock" d="M512 896q95.667 0 182.5-37.167t149.667-100 100-149.667 37.167-182.5-37.167-182.5-100-149.667-149.667-100-182.5-37.167-182.5 37.167-149.667 100-100 149.667-37.167 182.5 37.167 182.5 100 149.667 149.667 100 182.5 37.167zM512 810.667q-78 0-149.167-30.5t-122.5-81.833-81.833-122.5-30.5-149.167 30.5-149.167 81.833-122.5 122.5-81.833 149.167-30.5 149.167 30.5 122.5 81.833 81.833 122.5 30.5 149.167-30.5 149.167-81.833 122.5-122.5 81.833-149.167 30.5zM512 725.334q17.667 0 30.167-12.5t12.5-30.167v-238.333l115.667-115.333q12.333-12.333 12.333-30.333t-12.333-30.333-30.333-12.333-30.333 12.333l-128 128q-12.333 12.333-12.333 30.333v256q0 17.667 12.5 30.167t30.167 12.5z" />
<glyph unicode="&#xe609;" glyph-name="mail" horiz-adv-x="1157" d="M79.094 643.625l498.818-372.268zM577.911 197.537c-15.819 0-30.583 5.273-44.292 14.764l-498.818 371.213c-32.692 24.255-39.020 70.657-14.764 103.349s70.657 39.020 103.349 14.764l498.818-371.213c32.692-24.255 39.020-70.657 14.764-103.349-13.71-20.037-35.856-29.528-59.057-29.528zM1077.784 643.625l-499.872-372.268zM577.911 197.537c-22.146 0-44.292 10.546-59.057 29.528-24.255 32.692-17.928 79.094 14.764 103.349l499.872 372.268c32.692 24.255 79.094 17.928 103.349-14.764s17.928-79.094-14.764-103.349l-499.872-372.268c-12.655-10.546-28.474-14.764-44.292-14.764zM930.142-64h-703.407c-87.53 0-139.205 35.856-167.679 66.439-60.111 65.384-60.111 151.86-59.057 172.952v320.593c0 41.129 32.692 73.821 73.821 73.821s73.821-32.692 73.821-73.821v-327.975c-1.055-10.546 2.109-45.347 20.037-65.384 4.218-4.218 17.928-18.982 59.057-18.982h702.352c41.129 0 54.838 13.71 59.057 18.982 18.982 18.982 21.092 54.838 20.037 66.439v326.921c0 41.129 32.692 73.821 73.821 73.821s73.821-32.692 73.821-73.821v-320.593c1.055-20.037 1.055-107.567-59.057-172.952-27.419-30.583-79.094-66.439-166.624-66.439zM1083.057 326.196c-41.129 0-73.821 32.692-73.821 73.821v327.975c1.055 10.546-2.109 46.402-20.037 65.384-4.218 4.218-17.928 18.982-59.057 18.982h-703.407c-41.129 0-54.838-13.71-59.057-18.982-18.982-18.982-21.092-54.838-20.037-66.439v-327.975c0-41.129-32.692-73.821-73.821-73.821s-73.821 32.692-73.821 73.821v321.648c-1.055 20.037-1.055 107.567 59.057 172.952 28.474 30.583 80.148 66.439 167.679 66.439h702.352c87.53 0 139.205-35.856 167.679-66.439 60.111-65.384 60.111-152.915 59.057-172.952v-320.593c1.055-41.129-32.692-73.821-72.766-73.821z" />
<glyph unicode="&#xe60a;" glyph-name="phone" horiz-adv-x="620" d="M466.721-64h-313.469c-83.592 0-153.252 69.66-153.252 153.252v717.497c0 83.592 69.66 153.252 153.252 153.252h320.435c83.592 0 146.286-69.66 146.286-153.252v-717.497c0-83.592-69.66-153.252-153.252-153.252v0zM306.503 12.626c27.864 0 48.762 20.898 48.762 48.762s-20.898 48.762-48.762 48.762c-27.864 0-48.762-20.898-48.762-48.762 6.966-27.864 27.864-48.762 48.762-48.762v0zM543.347 806.748h-466.721v-626.939h466.721v626.939z" />
<glyph unicode="&#xe60b;" glyph-name="calendar" horiz-adv-x="1119" d="M1019.159 801.745v-83.409h-919.366v83.409h-99.793v-865.745h1118.953v865.745h-99.793zM1019.159-1.071h-919.366v545.513h919.366v-545.513zM139.636 881.059h840.052v-138.892h-840.052v138.892zM848.617 960h93.836v-110.592h-93.836v110.592zM176.873 960h93.836v-110.592h-93.836v110.592zM706.001 431.244h199.587v-199.587h-199.587v199.587z" />
<glyph unicode="&#xe60c;" glyph-name="lens" horiz-adv-x="1122" d="M1101.483-26.746c-32.963-41.399-92.258-47.64-132.291-13.8l-362.886 305.347c-25.746 21.455-37.303 54.174-33.694 85.772-53.979-50.712-122.051-82.066-196.169-89.819-90.941-9.509-179.834 17.847-250.246 77.093-70.51 59.343-114.2 143.311-123.124 236.788s18.042 185.051 76.020 257.804c119.71 150.138 335.482 172.763 481.134 50.322 132.145-111.275 161.694-304.372 76.556-451.389 29.452 9.996 63.049 4.876 88.795-16.872l363.13-305.25c39.985-33.792 45.739-94.696 12.776-135.997zM562.371 640.317c-5.949 62.464-35.255 118.638-82.554 158.232-97.621 81.871-242.542 66.853-322.853-33.499-80.311-100.498-66.17-248.783 31.549-330.508 97.67-81.92 242.542-66.853 322.853 33.499 38.863 48.567 57.003 109.763 51.005 172.276z" />
<glyph unicode="&#xe60d;" glyph-name="chevron-up" d="M961.714 190.286l-94.857-94.286q-10.857-10.857-25.714-10.857t-25.714 10.857l-303.429 303.429-303.429-303.429q-10.857-10.857-25.714-10.857t-25.714 10.857l-94.857 94.286q-10.857 10.857-10.857 26t10.857 26l424 423.429q10.857 10.857 25.714 10.857t25.714-10.857l424-423.429q10.857-10.857 10.857-26t-10.857-26z" />
<glyph unicode="&#xe60e;" glyph-name="credit-card" horiz-adv-x="1097" d="M1005.714 877.714q37.714 0 64.571-26.857t26.857-64.571v-694.857q0-37.714-26.857-64.571t-64.571-26.857h-914.286q-37.714 0-64.571 26.857t-26.857 64.571v694.857q0 37.714 26.857 64.571t64.571 26.857h914.286zM91.429 804.571q-7.429 0-12.857-5.429t-5.429-12.857v-128h950.857v128q0 7.429-5.429 12.857t-12.857 5.429h-914.286zM1005.714 73.143q7.429 0 12.857 5.429t5.429 12.857v347.429h-950.857v-347.429q0-7.429 5.429-12.857t12.857-5.429h914.286zM146.286 146.286v73.143h146.286v-73.143h-146.286zM365.714 146.286v73.143h219.429v-73.143h-219.429z" />
<glyph unicode="&#xe60f;" glyph-name="checkmark" d="M864 832l-480-480-224 224-160-160 384-384 640 640z" />
<glyph unicode="&#xe610;" glyph-name="maps" horiz-adv-x="1308" d="M1166.222 960c-78.564 0-142.222-63.659-142.222-142.222 0-34.987 13.084-66.674 34.133-91.42l-221.127-396.459c-40.619 37.66-94.549 61.212-154.34 61.212-54.443 0-103.708-19.911-142.905-51.769l-246.443 274.773c29.582 30.72 48.014 72.306 48.014 118.329 0 94.265-76.402 170.667-170.667 170.667s-170.667-76.402-170.667-170.667c0-94.265 76.402-170.667 170.667-170.667 27.591 0 53.305 7.168 76.345 18.773l253.156-282.283c-27.989-37.831-45.056-84.082-45.056-134.713 0-125.668 101.888-227.556 227.556-227.556s227.556 101.888 227.556 227.556c0 43.804-12.971 84.309-34.361 119.012l227.612 408.178c18.944-9.387 40.107-15.189 62.748-15.189 78.564 0 142.222 63.659 142.222 142.222s-63.659 142.222-142.222 142.222z" />
<glyph unicode="&#xe611;" glyph-name="photos" d="M301.176 960h-180.706c-66.5 0-120.471-53.971-120.471-120.471v-180.706c0-66.5 53.971-120.471 120.471-120.471h180.706c66.5 0 120.471 53.971 120.471 120.471v180.706c0 66.5-53.971 120.471-120.471 120.471zM903.529 960h-180.706c-66.5 0-120.471-53.971-120.471-120.471v-180.706c0-66.5 53.971-120.471 120.471-120.471h180.706c66.5 0 120.471 53.971 120.471 120.471v180.706c0 66.5-53.971 120.471-120.471 120.471zM903.529 357.647h-180.706c-66.5 0-120.471-53.971-120.471-120.471v-180.706c0-66.5 53.971-120.471 120.471-120.471h180.706c66.5 0 120.471 53.971 120.471 120.471v180.706c0 66.5-53.971 120.471-120.471 120.471zM301.176 357.647h-180.706c-66.5 0-120.471-53.971-120.471-120.471v-180.706c0-66.5 53.971-120.471 120.471-120.471h180.706c66.5 0 120.471 53.971 120.471 120.471v180.706c0 66.5-53.971 120.471-120.471 120.471z" />
<glyph unicode="&#xe612;" glyph-name="tick-handy" horiz-adv-x="1120" d="M1119.701 864.299c0-57.421-28.71-105.271-76.561-162.692l-9.57-9.57-430.654-459.364c-95.701-95.701-172.262-172.262-239.252-220.112-66.991-57.421-114.841-76.561-133.981-76.561-28.71 0-66.991 9.57-105.271 38.28s-66.991 47.85-86.131 76.561c-9.57 28.71-19.14 76.561-28.71 153.121s-9.57 153.121-9.57 248.822c0 47.85 19.14 95.701 57.421 133.981s86.131 57.421 133.981 57.421c47.85 0 76.561-38.28 86.131-124.411 0-9.57 0-19.14 0-19.14 9.57-66.991 19.14-114.841 28.71-143.551s19.14-38.28 38.28-38.28c9.57 0 19.14 9.57 38.28 19.14 19.14 19.14 38.28 38.28 66.991 57.421l449.794 440.224c38.28 38.28 66.991 66.991 95.701 86.131 28.71 28.71 57.421 38.28 76.561 38.28s28.71-9.57 28.71-19.14c9.57-9.57 9.57-28.71 9.57-57.421v-19.14z" />
<glyph unicode="&#xe613;" glyph-name="x" d="M1024 179.81l-243.81-243.81-273.067 263.314-263.314-263.314-243.81 243.81 263.314 263.314-263.314 273.067 243.81 243.81 263.314-263.314 263.314 263.314 243.81-243.81-253.562-263.314 263.314-273.067z" />
<glyph unicode="&#xe614;" glyph-name="question-form" horiz-adv-x="1119" d="M1019.159 801.745v-83.409h-919.366v83.409h-99.793v-865.745h1118.953v865.745h-99.793zM1019.159-1.071h-919.366v545.513h919.366v-545.513zM139.636 881.059h840.052v-138.892h-840.052v138.892zM848.617 960h93.836v-110.592h-93.836v110.592zM176.873 960h93.836v-110.592h-93.836v110.592zM456.145 418.211c7.075 5.958 14.895 11.543 23.087 16.756s17.129 9.681 26.81 13.405c9.681 3.724 19.735 7.075 30.534 9.309s22.714 3.351 35.747 3.351c17.873 0 33.885-2.234 48.407-7.075s26.438-11.543 36.864-20.48c10.054-8.937 17.873-19.363 23.459-32.023s8.192-26.438 8.192-41.705c0-14.522-1.862-27.183-5.958-37.609s-8.937-19.735-15.267-27.555c-6.33-7.82-13.033-14.522-20.108-20.108-7.447-5.585-14.15-10.799-20.852-16.012-6.703-4.841-12.288-9.681-17.129-14.522s-7.82-10.054-8.937-16.012l-7.82-39.843h-60.695l-7.447 45.801c-0.372 1.117-0.372 2.234-0.372 3.351s0 2.234 0 3.351c0 8.564 1.862 15.639 5.958 21.969s8.937 11.916 15.267 17.129c5.958 5.213 12.66 10.426 19.735 15.267s13.777 10.054 19.735 15.639c5.958 5.585 11.171 11.916 15.267 18.991s5.958 15.267 5.958 24.576c0 11.543-3.724 20.48-11.171 27.183s-17.873 10.054-30.906 10.054c-10.054 0-18.618-1.117-25.321-2.979-6.703-2.234-12.66-4.468-17.501-7.075s-8.937-4.841-12.66-7.075c-3.724-2.234-7.075-2.979-10.799-2.979-8.192 0-14.15 3.351-18.246 10.426l-23.831 36.492zM508.649 84.573c0 6.703 1.117 13.405 3.724 18.991 2.607 5.958 5.958 11.171 10.426 15.267 4.468 4.468 9.681 7.82 16.012 10.426 5.958 2.607 12.66 3.724 20.108 3.724 7.075 0 13.777-1.117 19.735-3.724s11.543-5.958 16.012-10.426c4.468-4.468 8.192-9.681 10.799-15.267 2.607-5.958 3.724-12.288 3.724-18.991s-1.117-13.405-3.724-19.363c-2.607-5.958-6.33-11.171-10.799-15.639s-10.054-7.82-16.012-10.426c-5.958-2.607-12.66-3.724-19.735-3.724s-13.777 1.117-20.108 3.724c-5.958 2.607-11.543 5.958-16.012 10.426s-7.82 9.681-10.426 15.639c-2.607 6.33-3.724 12.66-3.724 19.363z" />
<glyph unicode="&#xe615;" glyph-name="book" d="M547.721 72.93h-345.302c-35.721 0-65.488 29.767-65.488 71.442v744.186c0 41.674 29.767 71.442 65.488 71.442h339.349c35.721 0 65.488-29.767 65.488-71.442v-750.14c5.953-35.721-23.814-65.488-59.535-65.488v0zM547.721 888.558h-345.302v-750.14h339.349v750.14h5.953zM958.512 72.93h-339.349c-35.721 0-65.488 29.767-65.488 71.442v744.186c-5.953 41.674 23.814 71.442 59.535 71.442h339.349c35.721 0 65.488-29.767 65.488-71.442v-750.14c5.953-35.721-23.814-65.488-59.535-65.488v0zM958.512 888.558h-339.349v-750.14h339.349v750.14zM273.86 686.14v71.442h202.419v-65.488h-202.419v-5.953zM273.86 549.209v71.442h202.419v-65.488h-202.419v-5.953zM273.86 412.279v71.442h202.419v-65.488h-202.419v-5.953zM273.86 275.349v65.488h202.419v-65.488h-202.419zM684.651 686.14v71.442h202.419v-65.488h-202.419v-5.953zM684.651 549.209v71.442h202.419v-65.488h-202.419v-5.953zM684.651 412.279v71.442h202.419v-65.488h-202.419v-5.953zM684.651 275.349v65.488h202.419v-65.488h-202.419zM821.581-64h-756.093c-35.721 0-65.488 29.767-65.488 65.488v756.093c0 35.721 29.767 65.488 65.488 65.488h71.442v-65.488h-71.442v-750.14h750.14v65.488h65.488v-65.488c5.953-41.674-23.814-71.442-59.535-71.442v0z" />
<glyph unicode="&#xe616;" glyph-name="group" horiz-adv-x="1515" d="M1143.766-64c-137.731 0-449.123 0-449.123 0s-317.38 0-449.123 0c-41.918 0-59.883 23.953-59.883 65.871 11.977 65.871 47.906 167.673 179.649 209.591 143.719 53.895 149.708 59.883 149.708 59.883s29.942 53.895 47.906 59.883c17.965 5.988 0 23.953 0 29.942s-23.953 0-23.953 77.848c0 23.953 5.988 29.942-11.977 29.942-11.977 0-41.918 17.965-41.918 77.848 0 65.871 0 65.871 11.977 65.871 0 23.953-11.977 65.871-11.977 149.708 0 89.825 71.86 167.673 203.602 167.673 41.918 0 71.86 17.965 107.789 23.953 5.988-11.977 11.977-29.942 17.965-35.93 29.942-17.965 65.871-65.871 77.848-155.696 0-89.825-11.977-125.754-11.977-149.708 11.977 0 11.977-5.988 11.977-65.871s-29.942-77.848-41.918-77.848c-11.977 0-11.977 0-11.977-29.942 0-77.848-17.965-71.86-23.953-77.848 0-5.988-17.965-29.942 0-29.942 11.977-5.988 47.906-59.883 47.906-59.883s11.977-5.988 149.708-59.883c131.743-41.918 167.673-143.719 179.649-215.579 17.965-35.93 5.988-59.883-47.906-59.883v0zM1479.111-64c-83.836 0-269.474 0-269.474 0s-191.626 0-275.462 0c-23.953 0-35.93 11.977-35.93 41.918 5.988 41.918 29.942 101.801 107.789 125.754 83.836 35.93 89.825 35.93 89.825 35.93s17.965 35.93 29.942 35.93c11.977 0 0 17.965 0 17.965 0 5.988-11.977 0-11.977 47.906 0 17.965 0 17.965-5.988 17.965s-23.953 11.977-23.953 47.906c0 35.93 0 41.918 5.988 41.918 0 11.977-5.988 35.93-5.988 89.825s41.918 101.801 125.754 101.801c23.953 0 41.918 11.977 65.871 11.977 0-5.988 5.988-17.965 11.977-23.953 17.965-11.977 41.918-41.918 47.906-95.813 0-53.895-5.988-77.848-5.988-89.825 5.988 0 5.988 0 5.988-41.918 0-35.93-17.965-47.906-23.953-47.906s-5.988 0-5.988-17.965c0-47.906-11.977-41.918-11.977-47.906s-11.977-17.965 0-17.965c11.977 0 29.942-35.93 29.942-35.93s5.988-5.988 89.825-35.93c83.836-23.953 101.801-89.825 107.789-131.743-5.988-17.965-11.977-29.942-41.918-29.942v0zM323.368 391.111c-47.906 0-149.708 0-149.708 0s-107.789 0-149.708 0c-17.965 0-23.953 5.988-23.953 23.953 5.988 23.953 17.965 59.883 59.883 71.86 47.906 17.965 53.895 17.965 53.895 17.965s11.977 17.965 17.965 17.965c5.988 0 0 5.988 0 11.977 0 0-5.988 0-5.988 23.953-5.988 11.977-5.988 11.977-5.988 11.977-5.988 0-17.965 5.988-17.965 29.942s0 23.953 5.988 23.953c0 5.988-5.988 23.953-5.988 53.895s23.953 59.883 71.86 59.883c11.977 0 23.953 5.988 35.93 5.988 0-5.988 5.988-11.977 5.988-11.977 11.977-11.977 23.953-29.942 23.953-59.883s0-41.918 0-47.906c0-5.988 0-5.988 0-23.953 0-23.953-11.977-29.942-11.977-29.942-5.988 0-5.988 0-5.988-11.977 0-23.953-5.988-23.953-5.988-23.953s-5.988-11.977 0-11.977c5.988 0 17.965-17.965 17.965-17.965s5.988 0 53.895-17.965c47.906-11.977 59.883-47.906 59.883-71.86 0-17.965-5.988-23.953-23.953-23.953v0z" />
<glyph unicode="&#xe617;" glyph-name="gallery" d="M74.024 811.952v74.024h875.952v-74.024h-875.952zM74.024 10.024v727.904h875.952v-734.072h-875.952v6.169zM0 885.976v-882.12l74.024-74.024h875.952l74.024 74.024v882.12l-74.024 74.024h-875.952l-74.024-74.024zM512 299.952h148.048l74.024 222.072h74.024v-363.952h-296.096v141.88zM222.072 596.048h363.952v-222.072h-363.952v222.072zM148.048 670.072v-370.12h296.096v-222.072h437.976v518.169h-222.072v74.024h-512z" />
<glyph unicode="&#xe618;" glyph-name="avatar" horiz-adv-x="1018" d="M958.129-64c-137.731 0-449.123 0-449.123 0s-317.38 0-449.123 0c-41.918 0-59.883 23.953-59.883 65.871 11.977 65.871 47.906 167.673 179.649 209.591 143.719 53.895 149.708 59.883 149.708 59.883s29.942 53.895 47.906 59.883c17.965 5.988 0 23.953 0 29.942s-17.965 0-17.965 77.848c0 29.942 0 29.942-11.977 29.942s-41.918 17.965-41.918 77.848c0 65.871 0 65.871 11.977 65.871 0 23.953-11.977 65.871-11.977 149.708 0 89.825 71.86 167.673 203.602 167.673 35.93 5.988 71.86 29.942 107.789 29.942 5.988-11.977 11.977-29.942 17.965-35.93 29.942-17.965 65.871-65.871 77.848-155.696 0-89.825-11.977-125.754-11.977-149.708 11.977 0 11.977-5.988 11.977-65.871s-29.942-77.848-41.918-77.848c-11.977 0-11.977 0-11.977-29.942 0-77.848-17.965-71.86-23.953-77.848 0-5.988-17.965-29.942 0-29.942 11.977-5.988 47.906-59.883 47.906-59.883s11.977-5.988 149.708-59.883c131.743-41.918 167.673-143.719 179.649-215.579 5.988-41.918-5.988-65.871-53.895-65.871v0z" />
<glyph unicode="&#xe619;" glyph-name="printer" horiz-adv-x="885" d="M746.918 2.259h-48.188v120.471h-518.024v-120.471h-42.165c-72.282 0-138.541 60.235-138.541 138.541v283.106c0 72.282 60.235 138.541 138.541 138.541h48.188v-60.235h518.024v60.235h42.165c78.306 0 138.541-60.235 138.541-138.541v-289.129c0-72.282-60.235-132.518-138.541-132.518v0zM740.894 411.859h-192.753c-24.094 0-48.188-24.094-48.188-48.188s18.071-48.188 48.188-48.188h192.753c24.094 0 48.188 18.071 48.188 48.188s-24.094 48.188-48.188 48.188v0zM222.871 960h451.765v-343.341h-451.765v343.341zM662.588-64h-451.765v150.588h451.765v-150.588z" />
<glyph unicode="&#xe61a;" glyph-name="tick" horiz-adv-x="1359" d="M19.14 471.925c-28.71-28.71-28.71-95.701 0-124.411l373.234-382.804c28.71-28.71 95.701-28.71 124.411 0l57.421 57.421c28.71 28.71 95.701 95.701 124.411 124.411l641.196 593.346c28.71 28.71 28.71 95.701 0 124.411l-76.561 76.561c-28.71 28.71-95.701 28.71-124.411 0l-612.486-612.486c-28.71-28.71-95.701-28.71-124.411 0l-200.972 200.972c-28.71 28.71-95.701 28.71-124.411 0l-57.421-57.421z" />
<glyph unicode="&#xe61b;" glyph-name="close" d="M614.741 448.171l-0.171 0.171 409.429 398.052-97.28 113.607-414.72-410.226-414.72 410.226-97.28-113.607 409.429-398.393-409.429-398.052 97.28-113.55 414.72 410.169 414.72-410.169 97.28 113.55-409.429 398.052z" />
<glyph unicode="&#xe800;" glyph-name="hamburger" horiz-adv-x="1142" d="M118.154 723.692h905.846c65.241 0 118.154 52.894 118.154 118.154 0 65.241-52.913 118.154-118.154 118.154h-905.846c-65.241 0-118.154-52.913-118.154-118.154 0-65.26 52.913-118.154 118.154-118.154zM1024 566.154h-905.846c-65.241 0-118.154-52.913-118.154-118.154 0-65.26 52.913-118.154 118.154-118.154h905.846c65.241 0 118.154 52.894 118.154 118.154 0 65.241-52.913 118.154-118.154 118.154zM1024 172.308h-905.846c-65.241 0-118.154-52.894-118.154-118.154s52.913-118.154 118.154-118.154h905.846c65.241 0 118.154 52.894 118.154 118.154s-52.913 118.154-118.154 118.154z" />
<glyph unicode="&#xe900;" glyph-name="avatar-share" horiz-adv-x="1240" d="M905.432-58.611c-123.958 0-404.211 0-404.211 0s-285.642 0-404.211 0c-37.726 0-53.895 21.558-53.895 59.284 10.779 59.284 43.116 150.905 161.684 188.632 129.347 48.505 134.737 53.895 134.737 53.895s26.947 48.505 43.116 53.895c16.168 5.389 0 21.558 0 26.947s-21.558 0-21.558 70.063c0 21.558 5.389 26.947-10.779 26.947-10.779 0-37.726 16.168-37.726 70.063 0 59.284 0 59.284 10.779 59.284 0 21.558-10.779 59.284-10.779 134.737 0 80.842 64.674 150.905 183.242 150.905 37.726 0 64.674 16.168 97.011 21.558 5.389-10.779 10.779-26.947 16.168-32.337 26.947-16.168 59.284-59.284 70.063-140.126 0-80.842-10.779-113.179-10.779-134.737 10.779 0 10.779-5.389 10.779-59.284s-26.947-70.063-37.726-70.063c-10.779 0-10.779 0-10.779-26.947 0-70.063-16.168-64.674-21.558-70.063 0-5.389-16.168-26.947 0-26.947 10.779-5.389 43.116-53.895 43.116-53.895s10.779-5.389 134.737-53.895c118.568-37.726 150.905-129.347 161.684-194.021 16.168-37.726 0-53.895-43.116-53.895v0zM1196.463 825.263c0 70.063-70.063 129.347-199.411 129.347-134.737 0-199.411-59.284-199.411-129.347 0-64.674 37.726-113.179 145.516-129.347-10.779-21.558-80.842-129.347-107.789-145.516 43.116 0 145.516 113.179 177.853 140.126 118.568 5.389 183.242 64.674 183.242 134.737z" />
</font>
</defs>
</svg>
