<?xml version="1.0" encoding="utf-8"?>
<!-- Generator: Adobe Illustrator 18.0.0, SVG Export Plug-In . SVG Version: 6.00 Build 0)  -->
<!DOCTYPE svg PUBLIC "-//W3C//DTD SVG 1.1//EN" "http://www.w3.org/Graphics/SVG/1.1/DTD/svg11.dtd">
<svg version="1.1" id="Warstwa_1" xmlns="http://www.w3.org/2000/svg" xmlns:xlink="http://www.w3.org/1999/xlink" x="0px" y="0px"
	 viewBox="0 0 23 19" enable-background="new 0 0 23 19" xml:space="preserve">
<g>
	<path fill-rule="evenodd" clip-rule="evenodd" d="M16.8,18.9c-2.3,0-7.5,0-7.5,0s-5.3,0-7.5,0c-0.7,0-1-0.4-1-1.1
		c0.2-1.1,0.8-2.8,3-3.5c2.4-0.9,2.5-1,2.5-1s0.5-0.9,0.8-1c0.3-0.1,0-0.4,0-0.5c0-0.1-0.4,0-0.4-1.3c0-0.4,0.1-0.5-0.2-0.5
		c-0.2,0-0.7-0.3-0.7-1.3c0-1.1,0-1.1,0.2-1.1c0-0.4-0.2-1.1-0.2-2.5c0-1.5,1.2-2.8,3.4-2.8c0.7,0,1.2-0.3,1.8-0.4
		c0.1,0.2,0.2,0.5,0.3,0.6c0.5,0.3,1.1,1.1,1.3,2.6c0,1.5-0.2,2.1-0.2,2.5c0.2,0,0.2,0.1,0.2,1.1c0,1-0.5,1.3-0.7,1.3
		c-0.2,0-0.2,0-0.2,0.5c0,1.3-0.3,1.2-0.4,1.3c0,0.1-0.3,0.5,0,0.5c0.2,0.1,0.8,1,0.8,1s0.2,0.1,2.5,1c2.2,0.7,2.8,2.4,3,3.6
		C17.9,18.6,17.6,18.9,16.8,18.9L16.8,18.9z"/>
	<path fill-rule="evenodd" clip-rule="evenodd" d="M22.2,2.5c0-1.3-1.3-2.4-3.7-2.4c-2.5,0-3.7,1.1-3.7,2.4c0,1.2,0.7,2.1,2.7,2.4
		c-0.2,0.4-1.5,2.4-2,2.7c0.8,0,2.7-2.1,3.3-2.6C21,4.9,22.2,3.8,22.2,2.5z"/>
</g>
</svg>
